<svg width="320" height="100" viewBox="0 0 320 100" xmlns="http://www.w3.org/2000/svg">
  <defs>
    <linearGradient id="purpleGreen" x1="0%" y1="0%" x2="100%" y2="100%">
      <stop offset="0%" stop-color="#800080"/>
      <stop offset="100%" stop-color="#39FF14"/>
    </linearGradient>
    <filter id="shadow" x="-20%" y="-20%" width="140%" height="140%">
      <feDropShadow dx="0" dy="4" stdDeviation="3" flood-color="#460246FF"/>
    </filter>
  </defs>
  <rect width="320" height="100" rx="24" fill="url(#purpleGreen)"/>
  <!-- Artistic, interlocking letters -->
  <g filter="url(#shadow)">
    <!-- N -->
    <path d="M40,80 L40,30 L60,70 L60,30" stroke="#660278" stroke-width="8" fill="none" stroke-linecap="round"/>
    <!-- M -->
    <path d="M75,80 L75,30 L85,55 L95,30 L95,80" stroke="#660278" stroke-width="8" fill="none" stroke-linecap="round"/>
    <!-- B -->
    <path d="M115,30 L115,80 Q135,80 135,55 Q135,30 115,30 Z M115,55 Q135,55 135,80 Q135,80 115,80 Z" stroke="#660278" stroke-width="8" fill="none" stroke-linecap="round"/>
    <!-- A -->
    <path d="M155,80 L165,30 L175,80 M160,60 L170,60" stroke="#710786F6" stroke-width="8" fill="none" stroke-linecap="round"/>
  </g>
  <!-- Accent circle for artistic touch -->
  <circle cx="200" cy="50" r="18" fill="#39FF14" fill-opacity="0.18"/>
  <circle cx="200" cy="50" r="10" fill="#800080" fill-opacity="0.5"/>
</svg> 